
<svg xmlns="http://www.w3.org/2000/svg" width="1200" height="1200" viewBox="0 0 1200 1200">
<rect width="100%" height="100%" fill="#4cb050"/>
<rect x="40" y="50" width="1120" height="1100" fill="#43a047" rx="4"/>
<rect x="87.4" y="60" width="42" height="1080" rx="6" fill="#398e3d"/><rect x="176.8" y="60" width="42" height="1080" rx="6" fill="#398e3d"/><rect x="266.2" y="60" width="42" height="1080" rx="6" fill="#398e3d"/><rect x="355.5" y="60" width="42" height="1080" rx="6" fill="#398e3d"/><rect x="444.9" y="60" width="42" height="1080" rx="6" fill="#398e3d"/><rect x="534.3" y="60" width="42" height="1080" rx="6" fill="#398e3d"/><rect x="623.7" y="60" width="42" height="1080" rx="6" fill="#398e3d"/><rect x="713.1" y="60" width="42" height="1080" rx="6" fill="#398e3d"/><rect x="802.5" y="60" width="42" height="1080" rx="6" fill="#398e3d"/><rect x="891.8" y="60" width="42" height="1080" rx="6" fill="#398e3d"/><rect x="981.2" y="60" width="42" height="1080" rx="6" fill="#398e3d"/><rect x="1070.6" y="60" width="42" height="1080" rx="6" fill="#398e3d"/>
<circle cx="20" cy="20" r="14" fill="#398e3d"/>
<circle cx="1180" cy="20" r="14" fill="#398e3d"/>
<circle cx="20" cy="1180" r="14" fill="#398e3d"/>
<circle cx="1180" cy="1180" r="14" fill="#398e3d"/>
</svg>
