<svg xmlns="http://www.w3.org/2000/svg" width="512" height="512" viewBox="0 0 512 512">
<rect width="100%" height="100%" fill="#f7f7f7" />
<rect x="20" y="20" width="472" height="472" rx="24" ry="24" fill="#fedb05" />
<rect x="60" y="60" width="392" height="392" rx="18" ry="18" fill="none" stroke="#feab1d" stroke-width="18" />
<rect x="79.08" y="78" width="12" height="356" rx="2" ry="2" fill="#feab1d" />
<rect x="110.15" y="78" width="12" height="356" rx="2" ry="2" fill="#feab1d" />
<rect x="141.23" y="78" width="12" height="356" rx="2" ry="2" fill="#feab1d" />
<rect x="172.31" y="78" width="12" height="356" rx="2" ry="2" fill="#feab1d" />
<rect x="203.38" y="78" width="12" height="356" rx="2" ry="2" fill="#feab1d" />
<rect x="234.46" y="78" width="12" height="356" rx="2" ry="2" fill="#feab1d" />
<rect x="265.54" y="78" width="12" height="356" rx="2" ry="2" fill="#feab1d" />
<rect x="296.62" y="78" width="12" height="356" rx="2" ry="2" fill="#feab1d" />
<rect x="327.69" y="78" width="12" height="356" rx="2" ry="2" fill="#feab1d" />
<rect x="358.77" y="78" width="12" height="356" rx="2" ry="2" fill="#feab1d" />
<rect x="389.85" y="78" width="12" height="356" rx="2" ry="2" fill="#feab1d" />
<rect x="420.92" y="78" width="12" height="356" rx="2" ry="2" fill="#feab1d" />
</svg>